<?xml version="1.0" encoding="utf-8"?>
<!-- Generator: Adobe Illustrator 21.1.0, SVG Export Plug-In . SVG Version: 6.00 Build 0)  -->
<svg version="1.1" id="Capa_1" xmlns="http://www.w3.org/2000/svg" xmlns:xlink="http://www.w3.org/1999/xlink" x="0px" y="0px"
	 viewBox="0 0 20 20" style="enable-background:new 0 0 20 20;" xml:space="preserve">
<style type="text/css">
	.st0{fill:#FFFFFF;}
</style>
<title>Fill 41</title>
<desc>Created with Sketch.</desc>
<g>
	<g>
		<g>
			<path class="st0" d="M19.8,14.6l-1.5-9.4c-0.1-0.4-0.4-0.6-0.8-0.6H2.9l0.1,0.8L3.2,6l1.3,7.9l0.1,0.8l0.1,0.8h14.4
				c0.2,0,0.4-0.1,0.6-0.3C19.8,15,19.9,14.8,19.8,14.6z M15.3,10.7H7.6c-0.4,0-0.8-0.3-0.8-0.8c0-0.4,0.3-0.8,0.8-0.8h7.6
				c0.4,0,0.8,0.3,0.8,0.8C16,10.4,15.7,10.7,15.3,10.7z"/>
		</g>
	</g>
	<g>
		<g>
			<path class="st0" d="M3.1,14.7l-0.1-0.8L2.3,10L1.9,7.6L1.5,5.2L0,14.6c0,0.2,0,0.4,0.2,0.6c0.1,0.2,0.4,0.3,0.6,0.3h2.4
				L3.1,14.7z"/>
		</g>
	</g>
</g>
</svg>
